<svg t="1553060166390" class="icon" style="" viewBox="0 0 1030 1024" version="1.1" xmlns="http://www.w3.org/2000/svg" p-id="3430" xmlns:xlink="http://www.w3.org/1999/xlink" width="201.171875" height="200">
<path fill="#ffffff" d="M874.053 307.398c0-150.706-122.615-273.32-273.321-273.32S327.41 156.69 327.41 307.397c0 98.205 52.239 184.225 130.215 232.42-124.398 44.316-223.716 144.434-264.688 276.536-12.74 41.051-19.194 83.846-19.194 127.221 0 18.528 15.012 33.538 33.538 33.538s33.538-15.012 33.538-33.538c0-36.628 5.447-72.743 16.179-107.353C304.216 683.988 443.143 581.7 602.691 581.7c3.37 0 6.556-0.645 9.623-1.57 145.316-6.137 261.734-125.938 261.734-272.733z m-273.32 206.244c-113.728 0-206.244-92.515-206.244-206.244s92.515-206.244 206.244-206.244 206.244 92.515 206.244 206.244-92.515 206.244-206.244 206.244z m404.232 319.96l-5.055-15.678c-24.783-78.432-69.719-147.07-129.952-198.492-14.095-12.032-35.253-10.383-47.284 3.722-12.031 14.084-10.361 35.253 3.723 47.284 50.669 43.266 88.553 101.26 109.557 167.705l5.23 16.223c10.535 32.337 21.42 65.78 21.42 96.293 0 18.528 15.012 33.538 33.538 33.538s33.538-15.012 33.538-33.538c0.001-41.158-13.133-81.488-24.717-117.057zM377.636 556.636c2.773-3.463 5.114-7.318 6.361-11.869 4.891-17.86-5.622-36.31-23.483-41.214-83.923-22.992-142.528-99.906-142.528-187.028 0-67.317 34.117-128.828 91.271-164.56 15.71-9.827 20.481-30.516 10.667-46.215-9.826-15.732-30.515-20.46-46.214-10.667-76.894 48.071-122.802 130.848-122.802 221.442 0 85.68 42.246 163.882 109.018 211.94C147.609 573.895 58.127 668.55 21.57 786.395 9.441 825.5 3.283 866.277 3.283 907.59c0 18.528 15.012 33.538 33.538 33.538s33.538-15.012 33.538-33.538c0-34.565 5.142-68.65 15.274-101.325 37.905-122.21 143.872-214.683 269.937-235.579 9.333-1.55 17.083-6.839 22.069-14.05z" p-id="3431">
</path>
</svg>
